<svg viewBox="0 0 440 431.559" xmlns="http://www.w3.org/2000/svg" xmlns:xlink="http://www.w3.org/1999/xlink" width="440.000000" height="431.558838" fill="none" customFrame="#000000">
	<mask id="mask_3" width="78.000000" height="78.000000" x="0.000000" y="0.000000" maskUnits="objectBoundingBox">
		<g filter="url(#pixso_custom_mask_type_outline)">
			<g id="clip0_116_153" />
		</g>
	</mask>
	<mask id="mask_2" width="62.000000" height="62.000000" x="0.000000" y="0.000000" maskUnits="objectBoundingBox">
		<g filter="url(#pixso_custom_mask_type_outline)">
			<g id="clip0_118_208" />
		</g>
	</mask>
	<defs>
		<clipPath id="clipPath_3">
			<rect width="355.000000" height="430.000000" x="43.000000" y="1.279297" fill="rgb(255,255,255)" />
		</clipPath>
		<clipPath id="clipPath_4">
			<rect width="62.000000" height="62.000000" x="0.000000" y="0.000000" fill="rgb(255,255,255)" transform="matrix(0.999996,-0.00281323,0.00281323,0.999996,53,9.45361)" />
		</clipPath>
		<filter id="pixso_custom_mask_type_outline">
			<feColorMatrix type="matrix" values="0 0 0 0 1 0 0 0 0 1 0 0 0 0 1 0 0 0 1 0 " />
		</filter>
		<clipPath id="clipPath_5">
			<rect width="78.000000" height="78.000000" x="0.000000" y="0.000000" fill="rgb(255,255,255)" transform="matrix(0.999996,-0.00281323,0.00281323,0.999996,299,343.499)" />
		</clipPath>
	</defs>
	<rect id="Content" width="440.000000" height="431.558746" x="0.000000" y="0.000000" fill="rgb(255,255,255)" fill-opacity="0" />
	<g id="Content" clip-path="url(#clipPath_3)" customFrame="url(#clipPath_3)">
		<rect id="Content" width="355.000000" height="430.000000" x="43.000000" y="1.279297" fill="rgb(255,255,255)" fill-opacity="0" />
		<g id="Слой 1">
			<g id="Group">
				<path id="Vector" d="M334.661 1.2793C237.441 49.2239 140.22 97.1759 43 145.128C43.0294 154.087 43.0515 163.053 43.081 172.012C43.0515 172.027 43.0294 172.041 43 172.056C43.0294 182.018 43.0589 191.981 43.0957 201.944C43.0662 201.958 43.0294 201.973 43 201.987C43.0294 210.946 43.0515 219.913 43.081 228.872C43.0515 228.886 43.0294 228.901 43 228.916C43.1251 270.89 43.2576 312.872 43.3901 354.846C63.7499 371.35 84.1096 387.847 104.477 404.351C111.771 400.476 119.073 396.601 126.367 392.726C143.768 405.575 161.169 418.431 178.57 431.279C198.318 401.399 218.06 371.519 237.809 341.631C291.203 314.059 344.598 286.486 398 258.913L398 47.0336C376.889 31.7822 355.772 16.5307 334.661 1.2793ZM131.019 369.233L125.079 378.046L124.248 378.046C124.041 374.449 123.828 370.852 123.622 367.255C123.063 357.571 122.503 347.894 121.944 338.218C121.495 330.519 121.053 322.812 120.604 315.113C120.508 315.135 120.413 315.135 120.324 315.179L85.7584 332.328L62.8519 343.69L53.386 348.385L53.386 152.57L330.105 15.2928L330.105 211.108L191.12 280.054C175.574 303.122 160.035 326.182 144.49 349.25C140 355.908 135.509 362.575 131.019 369.233Z" fill="rgb(173.71,121.98,255)" fill-rule="nonzero" />
				<g id="Group">
					<path id="Vector" d="M86.0676 223.378L86.0676 181.667L70.6543 189.285L70.6543 169.902L123.784 143.648L123.784 163.031L108.326 170.664L108.326 212.375L86.0603 223.378L86.0676 223.378Z" fill="rgb(173.71,121.98,255)" fill-rule="nonzero" />
					<path id="Vector" d="M86.0676 223.378L86.0676 181.667L70.6543 189.285L70.6543 169.902L123.784 143.648L123.784 163.031L108.326 170.664L108.326 212.375L86.0603 223.378L86.0676 223.378Z" fill="rgb(255,255,255)" fill-opacity="0.800000012" fill-rule="nonzero" />
					<path id="Vector" d="M131.748 200.801L131.748 139.7L154.014 128.697L154.014 189.798L131.748 200.801Z" fill="rgb(173.71,121.98,255)" fill-rule="nonzero" />
					<path id="Vector" d="M131.748 200.801L131.748 139.7L154.014 128.697L154.014 189.798L131.748 200.801Z" fill="rgb(255,255,255)" fill-opacity="0.800000012" fill-rule="nonzero" />
					<path id="Vector" d="M203.883 165.156C201.175 160.584 198.937 157.31 197.185 155.325C195.433 153.34 193.733 152.146 192.091 151.75C190.45 151.354 188.448 151.655 186.078 152.658L186.078 173.961L163.812 184.963L163.812 123.862L186.078 112.86L186.078 133.144C188.22 131.891 190.03 130.294 191.517 128.367C193.004 126.441 194.498 123.752 196.015 120.31C197.524 116.867 199.437 111.797 201.749 105.117L226.238 93.0151C224.464 97.8645 222.911 101.967 221.571 105.314C220.231 108.662 218.87 111.739 217.486 114.537C216.102 117.335 214.814 119.643 213.629 121.445C212.444 123.254 211.097 124.932 209.58 126.492C208.064 128.045 206.54 129.364 205.002 130.441C203.464 131.517 201.624 132.623 199.482 133.766L199.482 138.791C201.933 137.693 204.06 136.887 205.863 136.367C207.659 135.847 209.419 135.605 211.126 135.642C212.841 135.678 214.365 136 215.705 136.616C217.044 137.231 218.457 138.264 219.944 139.722C221.431 141.18 222.874 142.923 224.287 144.967C225.7 147.011 227.305 149.589 229.101 152.702L203.883 165.163L203.883 165.156Z" fill="rgb(173.71,121.98,255)" fill-rule="nonzero" />
					<path id="Vector" d="M203.883 165.156C201.175 160.584 198.937 157.31 197.185 155.325C195.433 153.34 193.733 152.146 192.091 151.75C190.45 151.354 188.448 151.655 186.078 152.658L186.078 173.961L163.812 184.963L163.812 123.862L186.078 112.86L186.078 133.144C188.22 131.891 190.03 130.294 191.517 128.367C193.004 126.441 194.498 123.752 196.015 120.31C197.524 116.867 199.437 111.797 201.749 105.117L226.238 93.0151C224.464 97.8645 222.911 101.967 221.571 105.314C220.231 108.662 218.87 111.739 217.486 114.537C216.102 117.335 214.814 119.643 213.629 121.445C212.444 123.254 211.097 124.932 209.58 126.492C208.064 128.045 206.54 129.364 205.002 130.441C203.464 131.517 201.624 132.623 199.482 133.766L199.482 138.791C201.933 137.693 204.06 136.887 205.863 136.367C207.659 135.847 209.419 135.605 211.126 135.642C212.841 135.678 214.365 136 215.705 136.616C217.044 137.231 218.457 138.264 219.944 139.722C221.431 141.18 222.874 142.923 224.287 144.967C225.7 147.011 227.305 149.589 229.101 152.702L203.883 165.163L203.883 165.156Z" fill="rgb(255,255,255)" fill-opacity="0.800000012" fill-rule="nonzero" />
					<path id="Vector" d="M229.785 131.949L229.785 118.485L260.354 103.38L260.354 116.844L229.785 131.949Z" fill="rgb(173.71,121.98,255)" fill-rule="nonzero" />
					<path id="Vector" d="M229.785 131.949L229.785 118.485L260.354 103.38L260.354 116.844L229.785 131.949Z" fill="rgb(255,255,255)" fill-opacity="0.800000012" fill-rule="nonzero" />
					<path id="Vector" d="M86.0676 306.887L86.0676 265.176L70.6543 272.795L70.6543 253.412L123.784 227.157L123.784 246.54L108.326 254.173L108.326 295.884L86.0603 306.887L86.0676 306.887Z" fill="rgb(173.71,121.98,255)" fill-rule="nonzero" />
					<path id="Vector" d="M86.0676 306.887L86.0676 265.176L70.6543 272.795L70.6543 253.412L123.784 227.157L123.784 246.54L108.326 254.173L108.326 295.884L86.0603 306.887L86.0676 306.887Z" fill="rgb(255,255,255)" fill-opacity="0.800000012" fill-rule="nonzero" />
					<path id="Vector" d="M145.064 277.732L122.032 289.115L143.224 217.547L169.722 204.449L190.914 255.074L167.882 266.458L165.784 260.59L147.162 269.791L145.064 277.732ZM150.886 252.957L162.104 247.412C161.044 243.984 160.315 240.973 159.896 238.365C159.484 235.757 159.219 232.307 159.101 228.022L153.838 230.622C153.691 235.069 153.433 238.79 153.043 241.794C152.653 244.797 151.939 248.518 150.879 252.957L150.886 252.957Z" fill="rgb(173.71,121.98,255)" fill-rule="nonzero" />
					<path id="Vector" d="M145.064 277.732L122.032 289.115L143.224 217.547L169.722 204.449L190.914 255.074L167.882 266.458L165.784 260.59L147.162 269.791L145.064 277.732ZM150.886 252.957L162.104 247.412C161.044 243.984 160.315 240.973 159.896 238.365C159.484 235.757 159.219 232.307 159.101 228.022L153.838 230.622C153.691 235.069 153.433 238.79 153.043 241.794C152.653 244.797 151.939 248.518 150.879 252.957L150.886 252.957Z" fill="rgb(255,255,255)" fill-opacity="0.800000012" fill-rule="nonzero" />
					<path id="Vector" d="M197.163 251.99L197.163 190.889L219.429 179.887L219.429 221.597L240.532 211.166L240.532 230.549L197.163 251.976L197.163 251.99Z" fill="rgb(173.71,121.98,255)" fill-rule="nonzero" />
					<path id="Vector" d="M197.163 251.99L197.163 190.889L219.429 179.887L219.429 221.597L240.532 211.166L240.532 230.549L197.163 251.976L197.163 251.99Z" fill="rgb(255,255,255)" fill-opacity="0.800000012" fill-rule="nonzero" />
					<path id="Vector" d="M288.443 206.888C285.734 202.317 283.496 199.043 281.745 197.058C279.993 195.072 278.292 193.878 276.651 193.483C275.01 193.087 273.007 193.387 270.637 194.391L270.637 215.693L248.371 226.696L248.371 165.595L270.637 154.592L270.637 174.876C272.779 173.624 274.59 172.027 276.077 170.1C277.564 168.174 279.058 165.485 280.574 162.042C282.083 158.599 283.997 153.53 286.308 146.849L310.797 134.748C309.023 139.597 307.47 143.699 306.131 147.047C304.791 150.395 303.429 153.471 302.045 156.27C300.662 159.068 299.374 161.376 298.196 163.178C297.011 164.987 295.664 166.664 294.147 168.225C292.631 169.778 291.107 171.096 289.569 172.173C288.031 173.25 286.19 174.356 284.048 175.499L284.048 180.524C286.5 179.425 288.627 178.62 290.43 178.099C292.226 177.579 293.985 177.338 295.693 177.374C297.408 177.411 298.932 177.733 300.271 178.348C301.611 178.964 303.024 179.997 304.511 181.454C305.998 182.912 307.441 184.656 308.854 186.699C310.267 188.743 311.872 191.322 313.668 194.435L288.45 206.896L288.443 206.888Z" fill="rgb(173.71,121.98,255)" fill-rule="nonzero" />
					<path id="Vector" d="M288.443 206.888C285.734 202.317 283.496 199.043 281.745 197.058C279.993 195.072 278.292 193.878 276.651 193.483C275.01 193.087 273.007 193.387 270.637 194.391L270.637 215.693L248.371 226.696L248.371 165.595L270.637 154.592L270.637 174.876C272.779 173.624 274.59 172.027 276.077 170.1C277.564 168.174 279.058 165.485 280.574 162.042C282.083 158.599 283.997 153.53 286.308 146.849L310.797 134.748C309.023 139.597 307.47 143.699 306.131 147.047C304.791 150.395 303.429 153.471 302.045 156.27C300.662 159.068 299.374 161.376 298.196 163.178C297.011 164.987 295.664 166.664 294.147 168.225C292.631 169.778 291.107 171.096 289.569 172.173C288.031 173.25 286.19 174.356 284.048 175.499L284.048 180.524C286.5 179.425 288.627 178.62 290.43 178.099C292.226 177.579 293.985 177.338 295.693 177.374C297.408 177.411 298.932 177.733 300.271 178.348C301.611 178.964 303.024 179.997 304.511 181.454C305.998 182.912 307.441 184.656 308.854 186.699C310.267 188.743 311.872 191.322 313.668 194.435L288.45 206.896L288.443 206.888Z" fill="rgb(255,255,255)" fill-opacity="0.800000012" fill-rule="nonzero" />
				</g>
			</g>
		</g>
		<g id="Content" clip-path="url(#clipPath_4)" customFrame="url(#clipPath_4)">
			<rect id="Content" width="62.000000" height="62.000000" x="0.000000" y="0.000000" fill="rgb(255,255,255)" fill-opacity="0" transform="matrix(0.999996,-0.00281323,0.00281323,0.999996,53,9.45361)" />
			<g id="Clip path group" mask="url(#mask_2)">
				<g id="Group">
					<path id="Vector" d="M31 62C30.1025 32.6312 29.3688 31.9021 0 31C29.3688 30.1025 30.098 29.3688 31 0C31.8974 29.3688 32.6312 30.098 62 31C32.6312 31.9021 31.9021 32.6222 31 62Z" fill="rgb(173.71,121.98,255)" fill-rule="nonzero" transform="matrix(0.999996,-0.00281323,0.00281323,0.999996,53,9.45361)" />
				</g>
			</g>
		</g>
	</g>
	<g id="Content" clip-path="url(#clipPath_5)" customFrame="url(#clipPath_5)">
		<rect id="Content" width="78.000000" height="78.000000" x="0.000000" y="0.000000" fill="rgb(255,255,255)" fill-opacity="0" transform="matrix(0.999996,-0.00281323,0.00281323,0.999996,299,343.499)" />
		<g id="Clip path group" mask="url(#mask_3)">
			<g id="Group">
				<path id="Vector" d="M39 0C40.3241 20.9662 57.0336 37.676 78 39C57.0336 40.3241 40.3241 57.0336 39 78C37.676 57.0336 20.9662 40.3241 0 39C20.9662 37.676 37.676 20.9662 39 0Z" fill="rgb(173.71,121.98,255)" fill-rule="nonzero" transform="matrix(0.999996,-0.00281323,0.00281323,0.999996,299,343.499)" />
			</g>
		</g>
	</g>
</svg>
